<svg height="512pt" viewBox="0 -37 512.00097 512" width="512pt" xmlns="http://www.w3.org/2000/svg"><path d="m306.210938 102.191406-8.414063 8.414063c-2.929687 2.929687-2.929687 7.679687 0 10.609375 2.894531 2.894531 7.71875 2.890625 10.609375 0l8.414062-8.414063c2.929688-2.929687 2.929688-7.679687 0-10.609375-2.929687-2.929687-7.679687-2.929687-10.609374 0zm0 0"/><path d="m399.214844 195.191406-8.417969 8.417969c-2.929687 2.929687-2.929687 7.675781 0 10.605469 2.816406 2.816406 7.683594 2.929687 10.609375 0l8.417969-8.414063c2.929687-2.929687 2.929687-7.679687 0-10.609375-2.933594-2.929687-7.679688-2.929687-10.609375 0zm0 0"/><path d="m361.160156 165.820312c-3.886718.257813-7.804687-1.277343-10.746094-4.21875-2.941406-2.945312-4.480468-6.859374-4.21875-10.75.277344-4.132812-2.847656-7.707031-6.980468-7.988281-4.140625-.277343-7.710938 2.851563-7.988282 6.984375-.550781 8.207032 2.574219 16.355469 8.578126 22.359375 5.828124 5.828125 14.105468 9.140625 22.363281 8.582031 4.132812-.277343 7.257812-3.855468 6.980469-7.988281-.277344-4.132812-3.859376-7.265625-7.988282-6.980469zm0 0"/><path d="m203.53125 121.214844c2.816406 2.820312 7.675781 2.933594 10.605469 0 2.929687-2.929688 2.929687-7.675782 0-10.605469l-8.414063-8.417969c-2.929687-2.929687-7.679687-2.929687-10.609375 0-2.929687 2.929688-2.929687 7.679688 0 10.609375 0 0 8.417969 8.414063 8.417969 8.414063zm0 0"/><path d="m112.722656 195.191406c-2.929687-2.929687-7.679687-2.929687-10.609375 0-2.929687 2.929688-2.929687 7.679688 0 10.609375 0 0 8.414063 8.414063 8.414063 8.414063 2.898437 2.898437 7.714844 2.894531 10.609375 0 2.929687-2.929688 2.929687-7.679688 0-10.605469zm0 0"/><path d="m149.769531 180.785156c8.289063.5625 16.511719-2.726562 22.359375-8.578125 6.003906-6.003906 9.132813-14.152343 8.582032-22.363281-.277344-4.132812-3.855469-7.253906-7.988282-6.980469-4.132812.277344-7.257812 3.855469-6.980468 7.988281.261718 3.890626-1.277344 7.804688-4.21875 10.746094-2.945313 2.945313-6.863282 4.480469-10.75 4.21875-4.128907-.285156-7.707032 2.847656-7.988282 6.984375-.277344 4.132813 2.847656 7.710938 6.984375 7.984375zm0 0"/><path d="m486.167969 208.097656c18.273437-24.738281 27.636719-55.921875 25.542969-86.699218-2.132813-31.398438-15.578126-60.960938-37.855469-83.238282-24.609375-24.605468-57.328125-38.160156-92.128907-38.160156-34.285156 0-67.890624 13.925781-92.128906 38.160156-12.519531 12.523438-23.738281 25.59375-33.628906 39.113282-9.886719-13.503907-21.148438-26.628907-33.632812-39.113282-26.441407-26.441406-63.699219-40.394531-101.015626-37.859375-31.398437 2.136719-60.960937 15.582031-83.238281 37.859375-23.425781 23.425782-36.949219 54.5625-38.07812475 87.667969-.14062525 4.140625 3.10156275 7.613281 7.24218775 7.753906 4.132812.132813 7.609375-3.101562 7.753906-7.242187.996094-29.292969 12.960938-56.84375 33.691406-77.570313 19.710938-19.710937 45.867188-31.609375 73.644532-33.5 24.589843-1.671875 48.972656 4.542969 69.5625 17.597657l-159.113282 159.113281c-7.367187-11.585938-12.53125-24.300781-15.386718-37.902344-.851563-4.054687-4.828126-6.652344-8.882813-5.800781-4.054687.851562-6.648437 4.828125-5.800781 8.882812 5.15625 24.578125 17.613281 47.5 35.367187 65.253906 30.644531 30.644532 67.066407 55.902344 107.925781 70.816407-43.570312 33.433593-67.515624 63.527343-71.152343 89.457031-2.136719 15.257812 2.613281 28.828125 14.125 40.34375 9.699219 9.695312 20.945312 14.613281 33.441406 14.617188 26.949219 0 58.699219-23.234376 94.363281-69.046876 17.710938-22.753906 31.828125-45.242187 39.191406-57.5625 7.394532 12.351563 21.699219 35.128907 39.3125 57.734376 32.652344 41.90625 62.085938 64.921874 87.476563 68.40625 15.179687 2.082031 29.433594-3.398438 40.1875-14.148438 13.644531-13.644531 24.667969-37.535156-.273437-73.886719-2.347657-3.414062-7.015626-4.285156-10.429688-1.941406-3.417969 2.347656-4.285156 7.015625-1.941406 10.429687 23.125 33.699219 7.25 49.574219 2.035156 54.789063-8.089844 8.089844-17.097656 11.324219-27.539062 9.894531-21.078126-2.890625-47.941407-24.597656-77.683594-62.765625-15.328125-19.671875-28.074219-39.46875-35.734375-52.015625 16.875 1.195313 44.222656.734375 77.105469-8.632812 17.300781 12.695312 31.917968 25.09375 43.480468 36.894531 2.898438 2.957031 7.648438 3.007813 10.605469.105469 2.960937-2.898438 3.007813-7.648438.109375-10.605469-10.152344-10.359375-22.484375-21.109375-36.761719-32.0625 6.75-2.460937 13.675781-5.304687 20.75-8.601563 36.703125-17.101562 75.179688-43.628906 99.492188-76.535156zm-22.921875-159.328125c19.710937 19.710938 31.609375 45.867188 33.496094 73.644531 1.671874 24.59375-4.542969 48.972657-17.59375 69.5625l-159.117188-159.113281c18.402344-11.714843 39.558594-17.859375 61.695312-17.859375 30.792969 0 59.742188 11.992188 81.519532 33.765625zm-421.492188 155.460938 162.398438-162.398438c2.625 2.203125 5.160156 4.523438 7.574218 6.9375 13.234376 13.234375 25.050782 27.195313 35.175782 41.558594-.148438.230469-.289063.457031-.4375.6875-9.464844 14.585937-17.664063 30.015625-24.234375 46.117187-7.539063 18.460938-12.152344 35.742188-14.855469 51.15625l-80.492188 80.492188c-27.675781-13.59375-53.957031-32.742188-78.191406-56.972656-2.417968-2.417969-4.738281-4.953125-6.9375-7.578125zm162.6875 8.207031c-1.285156 19.054688.238282 33.335938 1.394532 40.730469-8.0625 4.695312-25.484376 15.195312-45.167969 29.226562-6.433594-2.046875-12.84375-4.390625-19.175781-7.007812zm-82.023437 210.207031c-8.484375 0-15.949219-3.34375-22.828125-10.222656-8.113282-8.113281-11.34375-17.160156-9.875-27.644531 3.039062-21.691406 25.855468-49.382813 65.984375-80.074219 23.816406-18.21875 47.339843-32.5 57.238281-38.296875l32.699219 32.695312c-22.300781 38.617188-80.304688 123.554688-123.21875 123.542969zm224.058593-138.773437c-27.890624 8.234375-58.933593 12.257812-87.800781 7.050781l-37.578125-37.578125c-.695312-3.867188-2.066406-13.25-2.058594-26.617188 0-.054687 0-.113281 0-.167968-.003906-29.082032 6.453126-58.171875 17.59375-84.984375l133.8125 133.8125c-7.824218 3.238281-15.832031 6.082031-23.96875 8.484375zm38.578126-15.09375s-141.820313-141.816406-141.8125-141.835938c.804687-1.636718 1.632812-3.269531 2.472656-4.894531 14.066406-27.15625 32.902344-51.6875 54.492187-73.277344 2.414063-2.417969 4.949219-4.738281 7.574219-6.9375l162.398438 162.398438c-2.199219 2.625-4.519532 5.160156-6.9375 7.574219-24.230469 24.234374-50.515626 43.382812-78.1875 56.972656zm0 0"/></svg>