<svg id="Line-Expand" enable-background="new 0 0 64 64" height="512" viewBox="0 0 64 64" width="512" xmlns="http://www.w3.org/2000/svg"><path fill="#F7EBE8" d="m61.707 10.293-8-8c-.187-.188-.442-.293-.707-.293h-50c-.552 0-1 .448-1 1v58c0 .552.448 1 1 1h58c.552 0 1-.448 1-1v-50c0-.265-.105-.52-.293-.707zm-57.707 49.707v-56h48.586l6 6h-4.586v-3h-2v4c0 .552.448 1 1 1h7v48z"/><path fill="#F7EBE8" d="m53.104 45.378c-2.829-5.149-7.42-9.024-12.946-10.978l-2.656-5.312c-.112-.223-.303-.396-.536-.486l-9.192-3.536c-.369-.142-.787-.054-1.066.226l-1.414 1.414c-.279.279-.368.697-.226 1.066l3.536 9.192c.089.233.263.424.486.536l5.291 2.646c1.842 5.463 5.592 10.069 10.573 12.975l8.016 4.676c.515.3 1.085.447 1.652.447.85 0 1.691-.329 2.323-.961 1.026-1.026 1.255-2.63.556-3.902zm-25.363-16.223 3.916 3.916 1.414-1.414-3.916-3.916 6.73 2.589 2.333 4.666-3.223 3.223-4.666-2.333zm27.788 26.713c-.412.412-1.051.494-1.554.201l-8.016-4.676c-4.505-2.628-7.904-6.778-9.613-11.698l3.337-3.337c4.976 1.812 9.11 5.326 11.668 9.982l4.396 8.002c.272.498.183 1.125-.218 1.526z"/><path fill="#F7EBE8" d="m14 14.414 4.293 4.293c.391.391 1.023.391 1.414 0l4.293-4.293 4.293 4.293c.391.391 1.023.391 1.414 0l4.293-4.293 4.293 4.293c.195.195.451.293.707.293s.512-.098.707-.293l4.293-4.293 4.293 4.293 1.414-1.414-5-5c-.391-.391-1.023-.391-1.414 0l-4.293 4.293-4.293-4.293c-.391-.391-1.023-.391-1.414 0l-4.293 4.293-4.293-4.293c-.391-.391-1.023-.391-1.414 0l-4.293 4.293-4.293-4.293c-.391-.391-1.023-.391-1.414 0l-5 5 1.414 1.414z"/><path fill="#F7EBE8" d="m19 27.586-4.293-4.293c-.391-.391-1.023-.391-1.414 0l-5 5 1.414 1.414 4.293-4.293 4.293 4.293c.195.195.451.293.707.293s.512-.098.707-.293l5-5-1.414-1.414z"/><path fill="#F7EBE8" d="m14 56h2v2h-2z"/><path fill="#F7EBE8" d="m10 56h2v2h-2z"/><path fill="#F7EBE8" d="m6 56h2v2h-2z"/></svg>